<svg width="744" height="755" viewBox="0 0 744 755" fill="none" xmlns="http://www.w3.org/2000/svg">
<g clip-path="url(#clip0_262_460)">
<path d="M499.303 613.302C475.252 628.063 449.554 637.968 422.617 644.495C412.294 646.997 401.536 647.974 390.912 648.887C380.682 649.767 370.345 650.264 360.095 649.883C333.631 648.899 307.997 643.489 283.207 634.077C265.601 627.393 248.731 619.185 233.567 608.044C223.099 600.353 213.684 591.246 203.527 583.11C187.027 569.895 175.525 552.608 163.757 535.476C146.819 510.815 137.068 483.316 130.868 454.29C127.331 437.729 125.327 421.06 126.05 404.159C127.376 373.138 130.836 342.398 143.366 313.596C149.195 300.198 155.427 286.708 163.519 274.627C175.43 256.843 188.084 239.394 204.388 225.08C217.369 213.683 231.139 203.499 246.362 195.206C262.835 186.233 279.205 177.205 297.337 171.815C313.799 166.92 330.432 163.427 347.667 162.919C353.063 162.759 358.418 161.435 363.82 161.106C368.064 160.848 369.067 158.689 369.039 154.943C368.939 141.612 368.843 128.275 369.125 114.949C369.187 112.039 370.145 107.33 371.881 106.693C374.583 105.702 378.754 106.681 381.521 108.225C399.598 118.317 417.467 128.783 435.401 139.133C451.346 148.336 467.294 157.536 483.225 166.764C488.345 169.73 493.51 172.635 498.466 175.858C500.972 177.487 503.3 179.547 505.279 181.791C508.755 185.73 508.356 188.23 503.682 191.06C494.124 196.847 484.461 202.463 474.778 208.04C447.572 223.711 420.358 239.367 393.086 254.922C388.396 257.597 383.547 260.109 378.522 262.052C372.3 264.46 369.057 261.993 369.022 255.29C368.953 241.958 368.855 228.623 369.084 215.295C369.157 211.046 367.644 209.945 363.586 209.917C344.594 209.786 326.011 212.916 308.429 219.538C284.227 228.653 261.506 240.72 241.589 257.759C209.366 285.327 189.361 320.259 179.325 360.91C174.575 380.149 172.179 400.11 174.223 419.941C176.447 441.519 181.505 462.638 190.305 482.646C198.36 500.961 208.8 517.882 221.759 533.08C236.189 550.003 253.148 563.999 272.449 575.254C292.422 586.899 313.739 594.72 336.417 598.585C354.259 601.626 372.372 602.574 390.327 599.928C404.24 597.877 418.303 595.572 431.676 591.388C455.246 584.015 476.484 571.848 495.565 555.996C527.469 529.488 548.678 496.251 559.111 456.105C560.14 452.148 561.892 448.37 562.796 444.392C564.236 438.051 570.019 433.536 577.069 434.058C584.289 434.592 591.56 435.1 598.661 436.418C610.883 438.688 611.527 444.743 609.662 454.06C602.16 491.538 586.354 525.567 563.293 555.916C545.807 578.928 524.422 598.028 499.303 613.302Z" fill="url(#paint0_linear_262_460)"/>
<path d="M460.114 244.958C462.921 245.792 464.357 247.362 465.363 250.463C470.671 266.827 475.441 283.481 482.318 299.195C493.263 324.202 513.3 340.034 538.764 348.952C551.442 353.392 564.45 356.882 577.228 361.049C579.042 361.641 580.397 363.639 581.964 364.986C580.578 366.357 579.432 368.383 577.766 368.995C565.61 373.459 553.318 377.55 541.131 381.933C528.201 386.584 516.223 392.906 505.604 401.815C490.154 414.776 481.174 431.654 475.256 450.479C472.011 460.804 468.908 471.173 465.736 481.521C465.448 482.46 465.389 483.672 464.759 484.262C463.274 485.656 461.598 487.478 459.823 487.695C458.741 487.828 456.695 485.515 456.175 483.939C452.938 474.133 450.173 464.172 446.943 454.363C440.81 435.738 432.676 418.207 418.012 404.53C404.874 392.275 389.141 384.588 372.233 379.154C363.03 376.197 353.685 373.681 344.41 370.943C343.472 370.666 342.304 370.472 341.724 369.814C340.34 368.245 338.405 366.455 338.334 364.689C338.289 363.565 341.01 361.786 342.784 361.22C353.559 357.788 364.511 354.896 375.23 351.304C394.448 344.862 411.499 334.895 425.054 319.472C432.796 310.663 437.855 300.352 441.686 289.467C446.424 276.006 450.609 262.351 455.415 248.31C456.847 246.859 457.896 245.88 458.945 244.9C458.945 244.9 458.961 244.958 459.235 244.954C459.71 244.953 459.912 244.955 460.114 244.958Z" fill="url(#paint1_linear_262_460)"/>
<path d="M373.753 452.393C375.725 457.684 374.978 459.066 369.693 460.975C363.834 463.091 357.848 464.936 352.173 467.472C337.885 473.859 329.43 485.539 323.98 499.733C321.75 505.541 319.641 511.396 317.427 517.363C310.908 514.847 309.769 509.882 307.997 505.396C306.069 500.516 304.244 495.596 302.307 490.719C297.049 477.481 286.327 470.228 273.816 465.102C269.588 463.37 264.978 462.552 260.796 460.732C258.2 459.602 256.082 457.375 253.749 455.64C253.697 455.04 253.645 454.441 253.593 453.842C259.454 451.244 265.141 448.105 271.209 446.148C290.107 440.055 302.103 427.538 307.704 408.64C308.777 405.022 309.769 401.358 311.187 397.874C311.793 396.387 313.433 394.257 314.538 394.295C316.075 394.348 318.271 395.838 318.926 397.284C321.426 402.8 323.485 408.521 325.595 414.208C331.833 431.028 343.988 441.445 360.72 447.072C365.044 448.526 369.214 450.438 373.753 452.393Z" fill="url(#paint2_linear_262_460)"/>
<path d="M544.741 276.207C547.386 278.662 549.652 281.02 552.214 282.994C554.739 284.938 557.563 286.492 561.544 289.043C549.413 292.515 542.296 299.342 539.065 311.637C536.726 307.937 534.976 305.698 533.793 303.19C531.1 297.482 526.63 293.98 521.01 291.429C516.39 289.332 516.432 288.502 520.261 285.21C526.681 279.69 534.565 275.495 536.61 266.007C537.062 266.005 537.515 266.003 537.967 266.002C540.142 269.315 542.318 272.629 544.741 276.207Z" fill="url(#paint3_linear_262_460)"/>
<path d="M458.619 244.951C457.896 245.88 456.846 246.859 455.482 247.92C456.208 247.001 457.25 246.002 458.619 244.951Z" fill="url(#paint4_linear_262_460)"/>
<path d="M460.057 244.693C459.912 244.955 459.71 244.953 459.205 244.946C459.147 244.508 459.391 244.074 459.635 243.641C459.756 243.903 459.878 244.166 460.057 244.693Z" fill="url(#paint5_linear_262_460)"/>
</g>
<defs>
<linearGradient id="paint0_linear_262_460" x1="195" y1="268.5" x2="583.658" y2="536.574" gradientUnits="userSpaceOnUse">
<stop offset="0.201923" stop-color="#09ECD1"/>
<stop offset="0.485577" stop-color="#3E69D8"/>
<stop offset="1" stop-color="#A541B8"/>
</linearGradient>
<linearGradient id="paint1_linear_262_460" x1="318.684" y1="179.07" x2="532.691" y2="541.119" gradientUnits="userSpaceOnUse">
<stop stop-color="#09ECD1"/>
<stop offset="0.485577" stop-color="#3E69D8"/>
<stop offset="1" stop-color="#A541B8"/>
</linearGradient>
<linearGradient id="paint2_linear_262_460" x1="245.98" y1="377.5" x2="375.382" y2="557.962" gradientUnits="userSpaceOnUse">
<stop stop-color="#09ECD1"/>
<stop offset="0.485577" stop-color="#3E69D8"/>
<stop offset="1" stop-color="#A541B8"/>
</linearGradient>
<linearGradient id="paint3_linear_262_460" x1="432.586" y1="154.872" x2="606.716" y2="418.875" gradientUnits="userSpaceOnUse">
<stop stop-color="#09ECD1"/>
<stop offset="0.485577" stop-color="#3E69D8"/>
<stop offset="1" stop-color="#A541B8"/>
</linearGradient>
<linearGradient id="paint4_linear_262_460" x1="457.05" y1="244.951" x2="457.05" y2="247.92" gradientUnits="userSpaceOnUse">
<stop stop-color="#09ECD1"/>
<stop offset="0.485577" stop-color="#3E69D8"/>
<stop offset="1" stop-color="#A541B8"/>
</linearGradient>
<linearGradient id="paint5_linear_262_460" x1="459.627" y1="243.641" x2="459.627" y2="244.948" gradientUnits="userSpaceOnUse">
<stop stop-color="#09ECD1"/>
<stop offset="0.485577" stop-color="#3E69D8"/>
<stop offset="1" stop-color="#A541B8"/>
</linearGradient>
<clipPath id="clip0_262_460">
<rect width="744" height="755" fill="white"/>
</clipPath>
</defs>
</svg>
